<?xml version="1.0" standalone="no"?>
<!DOCTYPE svg PUBLIC "-//W3C//DTD SVG 20010904//EN"
 "http://www.w3.org/TR/2001/REC-SVG-20010904/DTD/svg10.dtd">
<svg version="1.0" xmlns="http://www.w3.org/2000/svg"
 width="350.000000pt" height="290.000000pt" viewBox="0 0 350.000000 290.000000"
 preserveAspectRatio="xMidYMid meet">

<g transform="translate(0.000000,290.000000) scale(0.100000,-0.100000)"
fill="#000000" stroke="none">
<path d="M1656 2534 c-213 -52 -387 -243 -418 -461 -19 -130 11 -264 83 -378
30 -47 32 -48 46 -30 19 26 12 80 -21 170 -45 123 -32 284 31 393 143 248 455
305 713 129 46 -31 106 -112 135 -181 l17 -39 31 31 31 31 -29 58 c-17 33 -58
87 -95 123 -141 141 -338 199 -524 154z"/>
<path d="M580 1075 l0 -55 55 0 55 0 0 -150 0 -150 55 0 55 0 0 150 0 150 56
0 55 0 -2 55 -2 55 -164 0 -163 0 0 -55z"/>
<path d="M1030 925 l0 -205 55 0 55 0 0 205 0 205 -55 0 -55 0 0 -205z"/>
<path d="M1260 1075 l0 -55 55 0 55 0 0 -150 0 -150 55 0 55 0 0 150 0 150 55
0 55 0 0 55 0 55 -165 0 -165 0 0 -55z"/>
<path d="M1741 1093 c-6 -21 -33 -113 -60 -205 l-49 -168 54 0 c53 0 55 1 61
30 l6 30 72 0 c73 0 73 0 80 -30 6 -29 9 -30 60 -30 39 0 53 4 50 13 -2 6 -27
91 -55 187 -28 96 -53 183 -56 193 -4 14 -18 17 -79 17 l-74 0 -10 -37z m105
-120 c8 -32 18 -66 20 -75 5 -15 -2 -18 -41 -18 -39 0 -46 3 -41 18 3 9 12 43
21 75 9 31 18 57 20 57 3 0 12 -26 21 -57z"/>
<path d="M2130 925 l0 -205 50 0 50 0 0 105 c0 58 3 105 8 105 4 -1 35 -48 70
-105 l63 -105 55 0 54 0 0 205 0 205 -50 0 -50 0 0 -112 c-1 -131 4 -132 -92
21 l-58 91 -50 0 -50 0 0 -205z"/>
<path d="M2662 1115 c-79 -35 -83 -189 -5 -224 13 -6 53 -11 88 -11 l65 0 0
-30 0 -30 -100 0 -100 0 0 -50 0 -50 113 0 c93 0 117 3 144 20 62 37 68 152
12 206 -26 25 -39 29 -104 32 -71 4 -75 5 -75 28 0 24 1 24 95 24 l95 0 0 50
0 50 -97 0 c-62 -1 -110 -6 -131 -15z"/>
<path d="M1428 333 c177 -2 467 -2 645 0 177 1 32 2 -323 2 -355 0 -500 -1
-322 -2z"/>
</g>
</svg>
